<svg width="3512" height="828" viewBox="0 0 3512 828" fill="none" xmlns="http://www.w3.org/2000/svg">
<g opacity="0.4">
<mask id="mask0_213_518" style="mask-type:alpha" maskUnits="userSpaceOnUse" x="0" y="0" width="3512" height="828">
<path d="M11 126.661C401.024 -160.618 931.198 200.634 1200.74 306.962C1429.27 397.113 1951.98 451.203 2342 306.962" stroke="#CDF2FF" stroke-width="36"/>
<path d="M11 264.661C401.024 -22.6184 931.198 338.634 1200.74 444.962C1429.27 535.113 1951.98 589.203 2342 444.962" stroke="#CDF2FF" stroke-width="36"/>
<path d="M11 402.661C401.024 115.382 931.198 476.634 1200.74 582.962C1429.27 673.113 1951.98 727.203 2342 582.962" stroke="#CDF2FF" stroke-width="36"/>
<path d="M11 540.661C401.024 253.382 931.198 614.634 1200.74 720.962C1429.27 811.113 1951.98 865.203 2342 720.962" stroke="#CDF2FF" stroke-width="36"/>
</mask>
<g mask="url(#mask0_213_518)">
<g filter="url(#filter0_f_213_518)">
<ellipse cx="1407.5" cy="490.5" rx="1132.5" ry="745.5" fill="#4D5FB0" fill-opacity="0.6"/>
</g>
<g filter="url(#filter1_f_213_518)">
<ellipse cx="-88" cy="321" rx="801" ry="648" fill="#05BCFF" fill-opacity="0.6"/>
</g>
<g filter="url(#filter2_f_213_518)">
<ellipse cx="2564" cy="522" rx="801" ry="648" fill="#05BCFF" fill-opacity="0.6"/>
</g>
<g filter="url(#filter3_f_213_518)">
<ellipse cx="9.5" cy="363" rx="205.5" ry="312" fill="#92F4FF" fill-opacity="0.6"/>
</g>
</g>
</g>
<defs>
<filter id="filter0_f_213_518" x="125" y="-405" width="2565" height="1791" filterUnits="userSpaceOnUse" color-interpolation-filters="sRGB">
<feFlood flood-opacity="0" result="BackgroundImageFix"/>
<feBlend mode="normal" in="SourceGraphic" in2="BackgroundImageFix" result="shape"/>
<feGaussianBlur stdDeviation="75" result="effect1_foregroundBlur_213_518"/>
</filter>
<filter id="filter1_f_213_518" x="-1039" y="-477" width="1902" height="1596" filterUnits="userSpaceOnUse" color-interpolation-filters="sRGB">
<feFlood flood-opacity="0" result="BackgroundImageFix"/>
<feBlend mode="normal" in="SourceGraphic" in2="BackgroundImageFix" result="shape"/>
<feGaussianBlur stdDeviation="75" result="effect1_foregroundBlur_213_518"/>
</filter>
<filter id="filter2_f_213_518" x="1613" y="-276" width="1902" height="1596" filterUnits="userSpaceOnUse" color-interpolation-filters="sRGB">
<feFlood flood-opacity="0" result="BackgroundImageFix"/>
<feBlend mode="normal" in="SourceGraphic" in2="BackgroundImageFix" result="shape"/>
<feGaussianBlur stdDeviation="75" result="effect1_foregroundBlur_213_518"/>
</filter>
<filter id="filter3_f_213_518" x="-346" y="-99" width="711" height="924" filterUnits="userSpaceOnUse" color-interpolation-filters="sRGB">
<feFlood flood-opacity="0" result="BackgroundImageFix"/>
<feBlend mode="normal" in="SourceGraphic" in2="BackgroundImageFix" result="shape"/>
<feGaussianBlur stdDeviation="75" result="effect1_foregroundBlur_213_518"/>
</filter>
</defs>
</svg>
